<svg width="16" height="16" viewBox="0 0 16 16" fill="none" xmlns="http://www.w3.org/2000/svg">
<g clip-path="url(#clip0_112_240)">
<path d="M15.3333 7.33353C15.1565 7.33353 14.987 7.26329 14.8619 7.13827C14.7369 7.01324 14.6667 6.84367 14.6667 6.66686C14.6653 5.25281 14.1029 3.89707 13.103 2.89719C12.1031 1.8973 10.7474 1.33494 9.33335 1.33353C9.15654 1.33353 8.98697 1.26329 8.86194 1.13827C8.73692 1.01324 8.66668 0.843674 8.66668 0.666863C8.66668 0.490052 8.73692 0.320483 8.86194 0.195459C8.98697 0.0704345 9.15654 0.000196548 9.33335 0.000196548C11.1009 0.00213761 12.7954 0.70514 14.0452 1.95496C15.2951 3.20478 15.9981 4.89935 16 6.66686C16 6.84367 15.9298 7.01324 15.8048 7.13827C15.6797 7.26329 15.5102 7.33353 15.3333 7.33353ZM13.3333 6.66686C13.3333 5.606 12.9119 4.58858 12.1618 3.83844C11.4116 3.08829 10.3942 2.66686 9.33335 2.66686C9.15654 2.66686 8.98697 2.7371 8.86194 2.86213C8.73692 2.98715 8.66668 3.15672 8.66668 3.33353C8.66668 3.51034 8.73692 3.67991 8.86194 3.80493C8.98697 3.92996 9.15654 4.0002 9.33335 4.0002C10.0406 4.0002 10.7189 4.28115 11.219 4.78125C11.7191 5.28134 12 5.95962 12 6.66686C12 6.84367 12.0703 7.01324 12.1953 7.13827C12.3203 7.26329 12.4899 7.33353 12.6667 7.33353C12.8435 7.33353 13.0131 7.26329 13.1381 7.13827C13.2631 7.01324 13.3333 6.84367 13.3333 6.66686ZM14.7887 14.7762L15.3953 14.0769C15.7815 13.6895 15.9983 13.1648 15.9983 12.6179C15.9983 12.0709 15.7815 11.5462 15.3953 11.1589C15.3747 11.1382 13.7707 9.9042 13.7707 9.9042C13.3857 9.53775 12.8744 9.3337 12.3429 9.33445C11.8114 9.33519 11.3006 9.54067 10.9167 9.9082L9.64601 10.9789C8.6088 10.5496 7.6666 9.91965 6.87354 9.12521C6.08047 8.33077 5.45216 7.38749 5.02468 6.34953L6.09135 5.08286C6.45916 4.69898 6.66488 4.18811 6.66575 3.65647C6.66662 3.12482 6.46257 2.61328 6.09601 2.2282C6.09601 2.2282 4.86068 0.626197 4.84001 0.60553C4.45965 0.222695 3.94393 0.00487789 3.4043 -0.000860263C2.86466 -0.00659842 2.34443 0.200203 1.95601 0.574863L1.18935 1.24153C-3.33999 6.4962 6.41335 16.1742 11.8413 16.0002C12.3895 16.0034 12.9327 15.8967 13.4389 15.6865C13.9451 15.4762 14.4041 15.1667 14.7887 14.7762Z" fill="white"/>
</g>
<defs>
<clipPath id="clip0_112_240">
<rect width="16" height="16" fill="white"/>
</clipPath>
</defs>
</svg>
