<svg width="16" height="16" viewBox="0 0 16 16" fill="none" xmlns="http://www.w3.org/2000/svg">
<g clip-path="url(#clip0_112_247)">
<path d="M8 0C3.58867 0 0 3.58867 0 8C0 12.4113 3.58867 16 8 16C12.4113 16 16 12.4113 16 8C16 3.58867 12.4113 0 8 0ZM10.6667 8.66667H8C7.82319 8.66667 7.65362 8.59643 7.5286 8.47141C7.40357 8.34638 7.33333 8.17681 7.33333 8V4C7.33333 3.82319 7.40357 3.65362 7.5286 3.5286C7.65362 3.40357 7.82319 3.33333 8 3.33333C8.17681 3.33333 8.34638 3.40357 8.47141 3.5286C8.59643 3.65362 8.66667 3.82319 8.66667 4V7.33333H10.6667C10.8435 7.33333 11.013 7.40357 11.1381 7.5286C11.2631 7.65362 11.3333 7.82319 11.3333 8C11.3333 8.17681 11.2631 8.34638 11.1381 8.47141C11.013 8.59643 10.8435 8.66667 10.6667 8.66667Z" fill="white"/>
</g>
<defs>
<clipPath id="clip0_112_247">
<rect width="16" height="16" fill="white"/>
</clipPath>
</defs>
</svg>
