<svg width="18" height="18" viewBox="0 0 18 18" fill="none" xmlns="http://www.w3.org/2000/svg">
<path d="M14.0325 6.1574C13.9628 6.0871 13.8798 6.0313 13.7884 5.99323C13.697 5.95515 13.599 5.93555 13.5 5.93555C13.401 5.93555 13.3029 5.95515 13.2116 5.99323C13.1202 6.0313 13.0372 6.0871 12.9675 6.1574L9.53248 9.5924C9.46276 9.66269 9.37981 9.71849 9.28842 9.75656C9.19702 9.79464 9.09899 9.81424 8.99998 9.81424C8.90098 9.81424 8.80295 9.79464 8.71155 9.75656C8.62016 9.71849 8.53721 9.66269 8.46748 9.5924L5.03248 6.1574C4.96276 6.0871 4.87981 6.0313 4.78842 5.99323C4.69702 5.95515 4.59899 5.93555 4.49998 5.93555C4.40098 5.93555 4.30295 5.95515 4.21155 5.99323C4.12016 6.0313 4.03721 6.0871 3.96748 6.1574C3.8278 6.29792 3.74939 6.48801 3.74939 6.68615C3.74939 6.88428 3.8278 7.07437 3.96748 7.2149L7.40998 10.6574C7.83186 11.0787 8.40373 11.3154 8.99998 11.3154C9.59624 11.3154 10.1681 11.0787 10.59 10.6574L14.0325 7.2149C14.1722 7.07437 14.2506 6.88428 14.2506 6.68615C14.2506 6.48801 14.1722 6.29792 14.0325 6.1574Z" fill="#AEAEB2"/>
</svg>
