<svg width="60" height="60" viewBox="0 0 60 60" fill="none" xmlns="http://www.w3.org/2000/svg">
<path d="M16.4918 20.7961C16.5337 20.7138 16.5914 20.6406 16.6616 20.5806C16.7318 20.5206 16.8132 20.4751 16.901 20.4466C16.9888 20.4181 17.0814 20.4071 17.1735 20.4144C17.2655 20.4217 17.3553 20.4471 17.4375 20.4891C18.6551 21.1102 19.9887 20.8992 20.6812 19.977C20.9145 19.6664 21.3551 19.6043 21.6656 19.8375C21.9762 20.0707 22.0383 20.5113 21.8051 20.8219C21.102 21.7582 20.0191 22.2527 18.8543 22.2527C18.1781 22.2527 17.4727 22.0863 16.7988 21.7418C16.7165 21.7 16.6432 21.6423 16.5831 21.5721C16.5231 21.5019 16.4775 21.4205 16.449 21.3327C16.4205 21.2448 16.4096 21.1522 16.4169 21.0601C16.4243 20.9681 16.4497 20.8783 16.4918 20.7961ZM58.8281 32.4551V49.8926C58.8281 50.2805 58.5129 50.5957 58.125 50.5957H44.1211C44.1316 50.6883 44.1398 50.7832 44.1387 50.8793V50.8992C44.127 52.0172 43.2867 52.9184 42.184 52.9969L33.1301 53.6461C28.357 53.9883 23.9789 55.2363 19.9031 56.4856C19.1449 56.7176 18.5051 56.7305 17.8277 56.7445C17.7434 56.7457 17.6566 56.7481 17.5687 56.7504C17.5266 56.7516 17.4844 56.7516 17.4422 56.7516C15.7102 56.7516 14.4234 55.8387 13.35 54.9785L6.94922 49.8469L5.33789 50.6695C4.9582 50.8629 4.52226 50.8664 4.14023 50.6777C3.7582 50.4891 3.4957 50.1399 3.41836 49.7215L1.2457 37.8188C0.916405 36.0117 1.68515 34.2961 3.2543 33.341L13.3793 27.1735L14.4281 24.3246C13.773 23.8676 13.1848 23.2899 12.6832 22.5984C12.2215 21.9621 11.7809 21.2262 11.3555 20.3883C11.0637 20.4809 10.7648 20.5301 10.4672 20.5301C10.077 20.5301 9.69023 20.4504 9.32695 20.2922C8.63789 19.991 8.11875 19.4438 7.86562 18.7488C7.61133 18.0551 7.65469 17.3016 7.9875 16.6277C8.27695 16.0406 8.75625 15.5766 9.35273 15.2988C9.33867 15.2555 9.32578 15.2098 9.31172 15.1664C9.30703 15.1535 9.30351 15.1406 9.3 15.1266C9.25195 14.9742 9.20508 14.8219 9.1582 14.6649C9.15703 14.659 9.15469 14.6531 9.15351 14.6473C8.37422 11.7973 8.48555 9.36212 9.48398 7.40861C10.3453 5.72345 11.8441 4.47306 13.8187 3.79454C15.7488 3.13126 18.0152 3.06915 20.0367 3.62462C22.1613 4.20822 23.7422 5.4129 24.375 6.92814C24.6703 7.63595 24.9293 8.33439 25.1531 9.02814H26.5102C28.2141 9.02814 29.6789 9.73009 30.7465 11.0578L31.5105 12.007C31.8281 12.402 31.923 12.9059 31.7719 13.3887C31.6207 13.8715 31.2551 14.2313 30.7687 14.3742L26.2219 15.709C26.216 16.8809 26.1105 18.0621 25.9055 19.2668L25.8984 19.3008C25.7754 19.8598 25.6184 20.3942 25.4332 20.8899C24.9328 22.2281 24.0832 23.3508 22.9992 24.1594L24.416 27.4934L28.2035 28.8164C28.2633 28.8375 28.3207 28.8668 28.3723 28.902L31.2879 30.9235L33.7594 23.5067C32.7785 23.134 32.0801 22.186 32.0801 21.0774C32.0801 19.6442 33.2461 18.4793 34.6781 18.4793H55.2047C56.6379 18.4793 57.8027 19.6453 57.8027 21.0774C57.8027 22.193 57.0961 23.1469 56.107 23.5137L58.7965 32.2477C58.8176 32.3156 58.8281 32.3848 58.8281 32.4551ZM57.4219 32.5606L55.1789 25.2762L52.7484 32.5688V48.1195L54.382 46.384V32.4551C54.382 32.0672 54.6973 31.752 55.0852 31.752C55.473 31.752 55.7883 32.0672 55.7883 32.4551V46.3852L57.4219 48.1207V32.5606ZM53.673 49.1895H56.4973L55.0852 47.6895L53.673 49.1895ZM33.4863 21.0774C33.4863 21.7348 34.0207 22.2692 34.6781 22.2692H55.2047C55.8621 22.2692 56.3965 21.7348 56.3965 21.0774C56.3965 20.4199 55.8621 19.8856 55.2047 19.8856H34.6781C34.0207 19.8856 33.4863 20.4199 33.4863 21.0774ZM32.2219 32.5688V45.8051L36.1676 44.932C36.4125 44.8781 36.6574 44.8676 36.8953 44.8969L37.5293 37.4356L37.2539 37.1742C36.8074 36.7512 36.5719 36.2016 36.5719 35.5863V34.3195C36.5719 34.2902 36.5742 34.2621 36.5777 34.234C36.5742 34.2059 36.5719 34.1777 36.5719 34.1485V31.6617C36.5719 31.2738 36.8871 30.9586 37.275 30.9586C37.6629 30.9586 37.9781 31.2738 37.9781 31.6617V33.6164H38.55V31.6617C38.55 31.2738 38.8652 30.9586 39.2531 30.9586C39.641 30.9586 39.9562 31.2738 39.9562 31.6617V33.6164H40.5281V31.6617C40.5281 31.2738 40.8434 30.9586 41.2312 30.9586C41.6191 30.9586 41.9344 31.2738 41.9344 31.6617V34.1485C41.9344 34.1777 41.932 34.2059 41.9285 34.234C41.932 34.2621 41.9344 34.2902 41.9344 34.3195V35.5863C41.9344 36.2016 41.6988 36.7512 41.2523 37.1742L40.9629 37.4485L41.2934 45.6492C41.3156 46.2106 41.1223 46.7215 40.7332 47.1258C40.3441 47.5313 39.8414 47.7445 39.2801 47.7445H38.8441C38.7809 47.7445 38.7176 47.741 38.6555 47.7352C38.5113 48.218 38.2066 48.6246 37.7953 48.8801L41.932 48.736C42.4523 48.7184 42.9305 48.8742 43.3254 49.1883H51.3398V32.4539C51.3398 32.3789 51.3516 32.3027 51.3762 32.2313L53.1691 26.8524H36.7102C36.3223 26.8524 36.007 26.5371 36.007 26.1492C36.007 25.7613 36.3223 25.4461 36.7102 25.4461H53.6391L54.2297 23.6742H35.1844L32.2219 32.5688ZM37.9793 35.0238V35.5875C37.9793 35.8172 38.0566 35.9977 38.223 36.1559L38.5395 36.457H39.9691L40.2855 36.1559C40.452 35.9977 40.5293 35.8172 40.5293 35.5875V35.0238H37.9793ZM39.5742 37.8621H38.9051L38.2441 45.6305C38.4152 45.8297 38.5453 46.057 38.6297 46.3031C38.6953 46.3277 38.7656 46.3395 38.8465 46.3395H39.2824C39.4617 46.3395 39.5977 46.282 39.7219 46.152C39.8461 46.0231 39.8988 45.8848 39.8906 45.7055L39.5742 37.8621ZM24.382 28.9699L23.652 31.827L25.8281 33.5121L26.5887 29.741L24.382 28.9699ZM25.5598 10.4332C25.8867 11.7141 26.0918 12.982 26.1762 14.2559L30.3715 13.0242C30.4066 13.0137 30.4184 13.0031 30.4289 12.968C30.4395 12.9328 30.4371 12.9176 30.4137 12.8883L29.6496 11.9391C28.8574 10.9547 27.7723 10.4344 26.509 10.4344H25.5598V10.4332ZM10.4977 14.2348H14.8336L17.0707 11.2219C18.1219 9.80626 19.6723 9.02579 21.4359 9.02579H23.6695C23.4926 8.51017 23.2957 7.99103 23.0766 7.4672C22.0863 5.0965 17.727 3.93517 14.2746 5.12228C10.6441 6.3715 9.26953 9.69142 10.4977 14.2348ZM21.4359 10.4332C20.1094 10.4332 18.9902 10.9957 18.1992 12.061L16.5844 14.2348H18.3387C19.5023 14.2348 20.4937 13.8035 21.2871 12.9527L23.6355 10.4332H21.4359ZM10.7484 19.0957C10.4227 18.3492 10.1074 17.536 9.79922 16.6512C9.56233 16.7937 9.3712 17.0011 9.24844 17.2488C9.08789 17.5758 9.06562 17.9367 9.18633 18.266C9.30703 18.5953 9.55664 18.8578 9.89062 19.0031C10.159 19.1215 10.4566 19.1508 10.7484 19.0957ZM13.8211 21.7723C14.9754 23.3649 16.6957 24.2156 18.6621 24.1629C18.9891 24.1547 19.377 24.136 19.7871 24.061C21.8051 23.6906 23.3824 22.3559 24.1148 20.3965C24.2754 19.9676 24.4113 19.5024 24.5203 19.0125C24.9434 16.5082 24.9094 14.1082 24.402 11.6742L22.316 13.9113C21.2613 15.0434 19.8855 15.641 18.3387 15.641H10.9406C11.8312 18.3176 12.7781 20.3332 13.8211 21.7723ZM15.6727 25.0125L14.7621 27.4863L19.1332 32.2688C19.1684 32.3063 19.1988 32.3485 19.2234 32.393L21.184 35.8055L23.1504 28.1086L21.7805 24.8871C21.2266 25.1464 20.6418 25.3335 20.0402 25.4438C19.5363 25.5363 19.0793 25.5586 18.6984 25.5692C18.6281 25.5715 18.5578 25.5715 18.4875 25.5715C17.4867 25.5715 16.5387 25.3793 15.6727 25.0125ZM11.1879 30.1547L13.8539 33.866L17.1691 32.2067L13.8258 28.5481L11.1879 30.1547ZM13.5609 44.8899L11.0566 38.9766C11.0206 38.8916 11.0017 38.8003 11.001 38.7079C11.0002 38.6156 11.0177 38.524 11.0525 38.4385C11.0872 38.3529 11.1385 38.275 11.2033 38.2093C11.2682 38.1436 11.3454 38.0913 11.4305 38.0555C11.7879 37.9043 12.2004 38.0707 12.3516 38.4293L15.0832 44.8805L17.8805 48.9762L30.8145 46.1168V32.4551C30.8145 32.4094 30.8203 32.3637 30.8297 32.318L27.9117 30.2942L26.9824 34.9008C26.9502 35.0599 26.864 35.203 26.7385 35.3059C26.6129 35.4088 26.4557 35.4653 26.2934 35.4656C26.1398 35.4656 25.9875 35.4152 25.8633 35.318L23.2723 33.3117L22.118 37.8317C22.0836 37.9673 22.0094 38.0895 21.905 38.1826C21.8006 38.2758 21.6707 38.3356 21.532 38.3543C21.5004 38.359 21.4687 38.3613 21.4371 38.3613C21.1875 38.3613 20.9543 38.2289 20.8277 38.0086L18.1242 33.3012L13.9477 35.3906C13.8469 35.441 13.7391 35.4645 13.6336 35.4645C13.4133 35.4645 13.1977 35.3613 13.0617 35.1715L9.9832 30.8871L3.98555 34.5399C2.92617 35.1856 2.40586 36.3445 2.62851 37.5645L4.78359 49.3723L6.69726 48.3949C6.70781 48.3891 6.71953 48.3832 6.73008 48.3785L13.5609 44.8899ZM42.7324 50.8676C42.7348 50.6567 42.6656 50.4914 42.5145 50.3449C42.3645 50.1996 42.1969 50.1363 41.9836 50.1434L31.2809 50.516C31.1066 50.522 30.9363 50.4631 30.803 50.3508C30.6696 50.2384 30.5827 50.0806 30.559 49.9078C30.5356 49.7349 30.5774 49.5595 30.6762 49.4157C30.7749 49.2719 30.9236 49.17 31.0934 49.1297L36.9059 47.7492C37.207 47.6777 37.3547 47.3485 37.3453 47.059L37.343 46.9828C37.3359 46.7567 37.2445 46.5785 37.0664 46.4403C36.8883 46.302 36.6926 46.2574 36.4723 46.3067L17.7211 50.4527C17.4398 50.5149 17.1504 50.4 16.9887 50.1633L14.2324 46.1285L8.32265 49.1485L14.2301 53.8852C15.3855 54.811 16.3406 55.3805 17.5336 55.3488C17.6238 55.3465 17.7129 55.3442 17.7996 55.343C18.4266 55.3301 18.9223 55.3195 19.4918 55.1449C23.6437 53.8723 28.1098 52.6008 33.0293 52.2481L42.0832 51.5988C42.4488 51.5731 42.7277 51.2684 42.7313 50.891L42.7324 50.8676ZM42.4969 38.6977C42.8063 35.8758 43.2656 33.5402 46.0723 31.3277C46.2013 31.2251 46.3567 31.1612 46.5206 31.1433C46.6844 31.1255 46.85 31.1545 46.998 31.227C47.3039 31.3758 47.4937 31.6781 47.4937 32.018V40.1988L47.7176 45.6492C47.741 46.2106 47.5477 46.7215 47.1586 47.127C46.7695 47.5324 46.2668 47.7469 45.7043 47.7469H45.5355C44.9566 47.7469 44.4434 47.5219 44.052 47.0953C43.6605 46.6688 43.4789 46.1391 43.5281 45.5613L43.9852 40.1777L43.9945 39.6164L43.084 39.4699C42.9058 39.4409 42.7456 39.3446 42.6364 39.2009C42.5271 39.0572 42.4772 38.8771 42.4969 38.6977ZM46.3137 45.7055L46.1168 40.916H45.334L44.9297 45.6797C44.9145 45.8637 44.9625 46.0067 45.0879 46.1426C45.2133 46.2785 45.3516 46.3395 45.5367 46.3395H45.7055C45.8848 46.3395 46.0207 46.282 46.1449 46.152C46.268 46.0231 46.3207 45.8848 46.3137 45.7055ZM43.9723 38.1879L44.8195 38.325C45.1641 38.3813 45.416 38.6813 45.4102 39.0305L45.402 39.5098H46.0875V33.1899C44.618 34.6711 44.2207 36.2133 43.9723 38.1879Z" fill="#F05C36"/>
</svg>
