<svg width="60" height="60" viewBox="0 0 60 60" fill="none" xmlns="http://www.w3.org/2000/svg">
<mask id="mask0_112_1912" style="mask-type:luminance" maskUnits="userSpaceOnUse" x="0" y="0" width="60" height="60">
<path d="M59.1998 59.2V0.800175H0.8V59.2H59.1998Z" fill="white" stroke="white" stroke-width="1.6"/>
</mask>
<g mask="url(#mask0_112_1912)">
<path d="M32.5075 10.1971L30.6471 5.81669C30.4046 5.24575 29.5953 5.24575 29.3528 5.81669L27.4923 10.1971" stroke="#F05C36" stroke-width="1.6" stroke-miterlimit="10" stroke-linecap="round" stroke-linejoin="round"/>
<path d="M34.3678 14.0861L36.3424 9.32756C36.5534 8.81932 36.0108 8.3269 35.5253 8.586L31.8211 10.5635C31.2607 10.8627 30.6352 11.0192 30 11.0192C29.3647 11.0192 28.7392 10.8627 28.1788 10.5635L24.4745 8.586C23.9892 8.3269 23.4465 8.81932 23.6574 9.32756L25.632 14.0861" stroke="#F05C36" stroke-width="1.6" stroke-miterlimit="10" stroke-linecap="round" stroke-linejoin="round"/>
<path d="M18.1665 19.7306C18.613 16.5408 21.3524 14.086 24.6653 14.086H35.3345C38.6474 14.086 41.3869 16.5408 41.8334 19.7306" stroke="#F05C36" stroke-width="1.6" stroke-miterlimit="10" stroke-linecap="round" stroke-linejoin="round"/>
<path d="M36.9616 34.9561C36.6844 34.0635 36.5439 33.1341 36.5448 32.1995C36.5448 27.0798 40.6952 22.9295 45.8149 22.9295C50.9346 22.9295 55.0849 27.0798 55.0849 32.1995C55.0857 33.1301 54.9464 34.0556 54.6715 34.9447" stroke="#F05C36" stroke-width="1.6" stroke-miterlimit="10" stroke-linecap="round" stroke-linejoin="round"/>
<path d="M45.8149 22.9294V15.2019" stroke="#F05C36" stroke-width="1.6" stroke-miterlimit="10" stroke-linecap="round" stroke-linejoin="round"/>
<path d="M47.3256 19.3658L45.8149 18.0998L47.3256 16.834C48.6319 15.7392 50.5353 15.7392 51.8417 16.834L52.8164 17.6508C53.0959 17.8849 53.0959 18.3148 52.8164 18.549L51.8417 19.3658C50.5353 20.4606 48.6319 20.4606 47.3256 19.3658Z" stroke="#F05C36" stroke-width="1.6" stroke-miterlimit="10" stroke-linecap="round" stroke-linejoin="round"/>
<path d="M21.65 34.9447L24.144 29.4553C24.5026 28.666 24.6182 27.7877 24.476 26.9325C24.0563 24.4085 21.5664 22.7843 19.0873 23.4174L15.8056 24.2554C15.0967 24.4364 14.3536 24.4364 13.6446 24.2554L10.3629 23.4174C7.88367 22.7843 5.39391 24.4085 4.97426 26.9325C4.832 27.7877 4.94753 28.666 5.30613 29.4553L7.80011 34.9447" stroke="#F05C36" stroke-width="1.6" stroke-miterlimit="10" stroke-linecap="round" stroke-linejoin="round"/>
<path d="M14.725 24.2595V15.2019" stroke="#F05C36" stroke-width="1.6" stroke-miterlimit="10" stroke-linecap="round" stroke-linejoin="round"/>
<path d="M13.2144 19.3658L14.725 18.0998L13.2144 16.834C11.9081 15.7392 10.0046 15.7392 8.69823 16.834L7.72346 17.6508C7.44409 17.8849 7.44409 18.3148 7.72358 18.549L8.69823 19.3658C10.0046 20.4606 11.9081 20.4606 13.2144 19.3658Z" stroke="#F05C36" stroke-width="1.6" stroke-miterlimit="10" stroke-linecap="round" stroke-linejoin="round"/>
<path d="M56.7631 41.0526V45.6554" stroke="#F05C36" stroke-width="1.6" stroke-miterlimit="10" stroke-linecap="round" stroke-linejoin="round"/>
<path d="M56.7631 50.7064V57.9492C56.7631 58.5964 56.2385 59.1211 55.5913 59.1211H4.4086C3.76137 59.1211 3.23672 58.5964 3.23672 57.9492V41.0526" stroke="#F05C36" stroke-width="1.6" stroke-miterlimit="10" stroke-linecap="round" stroke-linejoin="round"/>
<path d="M14.725 41.0526H2.05078C1.40355 41.0526 0.878906 40.5278 0.878906 39.8807V36.1166C0.878906 35.4693 1.40355 34.9447 2.05078 34.9447H57.9491C58.5963 34.9447 59.1209 35.4693 59.1209 36.1166V39.8807C59.1209 40.5278 58.5963 41.0526 57.9491 41.0526H19.514" stroke="#F05C36" stroke-width="1.6" stroke-miterlimit="10" stroke-linecap="round" stroke-linejoin="round"/>
<path d="M24.0374 20.1869H24.8249" stroke="#F05C36" stroke-width="1.6" stroke-miterlimit="10" stroke-linecap="round" stroke-linejoin="round"/>
<path d="M29.6062 20.1869H30.3937" stroke="#F05C36" stroke-width="1.6" stroke-miterlimit="10" stroke-linecap="round" stroke-linejoin="round"/>
<path d="M35.1749 20.1869H35.9624" stroke="#F05C36" stroke-width="1.6" stroke-miterlimit="10" stroke-linecap="round" stroke-linejoin="round"/>
<path d="M29.6062 30.1122H30.3937" stroke="#F05C36" stroke-width="1.6" stroke-miterlimit="10" stroke-linecap="round" stroke-linejoin="round"/>
<path d="M26.8218 25.2798H27.6093" stroke="#F05C36" stroke-width="1.6" stroke-miterlimit="10" stroke-linecap="round" stroke-linejoin="round"/>
<path d="M32.3905 25.2798H33.178" stroke="#F05C36" stroke-width="1.6" stroke-miterlimit="10" stroke-linecap="round" stroke-linejoin="round"/>
<path d="M33.4949 50.7063H26.505C25.1079 50.7063 23.9753 49.5737 23.9753 48.1766C23.9753 46.7795 25.1079 45.6469 26.505 45.6469H33.4949C34.892 45.6469 36.0246 46.7795 36.0246 48.1766C36.0246 49.5737 34.892 50.7063 33.4949 50.7063Z" stroke="#F05C36" stroke-width="1.6" stroke-miterlimit="10" stroke-linecap="round" stroke-linejoin="round"/>
<path d="M57.1322 11.1956L57.1615 11.1859C57.3726 11.1163 57.3726 10.8177 57.1615 10.7481L57.1321 10.7384C56.5164 10.5351 55.9568 10.1904 55.4983 9.73191C55.0398 9.27338 54.6951 8.71379 54.4919 8.09802L54.4823 8.06872C54.4126 7.85767 54.1141 7.8579 54.0445 8.06884L54.0348 8.09825C53.8316 8.71398 53.4869 9.27352 53.0285 9.732C52.57 10.1905 52.0105 10.5352 51.3948 10.7384L51.3653 10.7481C51.1542 10.8177 51.1542 11.1163 51.3653 11.1859L51.3946 11.1956C52.0104 11.3989 52.57 11.7436 53.0285 12.2021C53.487 12.6607 53.8317 13.2203 54.0349 13.8361L54.0445 13.8654C54.1142 14.0764 54.4127 14.0762 54.4823 13.8652L54.492 13.8359C54.6952 13.2201 55.0399 12.6605 55.4984 12.202C55.9569 11.7435 56.5165 11.3988 57.1322 11.1956Z" stroke="#F05C36" stroke-width="1.6" stroke-miterlimit="10" stroke-linecap="round" stroke-linejoin="round"/>
<path d="M13.439 6.91726L13.4683 6.90766C13.6794 6.83793 13.6794 6.53945 13.4683 6.46984L13.4389 6.46012C12.8231 6.25686 12.2635 5.91214 11.805 5.4536C11.3465 4.99505 11.0019 4.43545 10.7987 3.81966L10.7891 3.79036C10.7193 3.57931 10.421 3.57954 10.3512 3.79059L10.3415 3.82001C10.1383 4.43573 9.7937 4.99527 9.33523 5.45376C8.87677 5.91224 8.31724 6.25691 7.70153 6.46012L7.67212 6.46984C7.46106 6.53945 7.46106 6.83793 7.67212 6.90766L7.70153 6.91726C8.32224 7.12217 8.88579 7.47078 9.34626 7.93472C9.80673 8.39865 10.1511 8.96479 10.3514 9.58702C10.421 9.79808 10.7194 9.79796 10.7891 9.58679L10.7988 9.55761C11.002 8.94183 11.3467 8.38225 11.8052 7.92372C12.2637 7.4652 12.8232 7.1205 13.439 6.91726Z" stroke="#F05C36" stroke-width="1.6" stroke-miterlimit="10" stroke-linecap="round" stroke-linejoin="round"/>
<path d="M47.8714 5.64361L47.9138 5.62955C48.2199 5.52853 48.2199 5.09553 47.9138 4.99451L47.8712 4.98045C46.9781 4.68566 46.1665 4.1857 45.5016 3.52066C44.8366 2.85561 44.3367 2.04399 44.042 1.15089L44.0279 1.10835C43.9269 0.802258 43.494 0.80261 43.393 1.1087L43.3789 1.15136C43.0842 2.04439 42.5843 2.85592 41.9194 3.52089C41.2544 4.18585 40.4429 4.68574 39.5498 4.98045L39.5072 4.99451C39.2011 5.09553 39.2011 5.52853 39.5072 5.62955L39.5498 5.64361C40.4429 5.93843 41.2545 6.4384 41.9195 7.10344C42.5845 7.76848 43.0844 8.58008 43.3792 9.47317L43.3931 9.51571C43.4941 9.8218 43.927 9.82145 44.028 9.51547L44.0421 9.47294C44.3368 8.57984 44.8367 7.76825 45.5017 7.10324C46.1667 6.43823 46.9783 5.93832 47.8714 5.64361Z" stroke="#F05C36" stroke-width="1.6" stroke-miterlimit="10" stroke-linecap="round" stroke-linejoin="round"/>
</g>
</svg>
