<svg width="28" height="28" viewBox="0 0 28 28" fill="none" xmlns="http://www.w3.org/2000/svg">
<g clip-path="url(#clip0_112_261)">
<path d="M28 14.0002C28 12.1032 27.167 10.3135 25.7542 9.18887C25.8355 8.25661 25.7116 7.31784 25.3911 6.43863C25.0706 5.55941 24.5613 4.7611 23.8992 4.09987C22.5575 2.75937 20.7083 2.08037 18.9093 2.2857C16.5597 -0.6963 11.4835 -0.7523 9.18866 2.24487C5.41683 1.79687 1.78966 5.3482 2.28666 9.09087C-0.69534 11.4405 -0.752506 16.5167 2.24583 18.8127C2.16449 19.745 2.28842 20.6837 2.6089 21.5629C2.92939 22.4422 3.43864 23.2405 4.10083 23.9017C5.44249 25.2422 7.29399 25.9212 9.09066 25.7159C11.4403 28.6979 16.5165 28.7539 18.8113 25.7567C19.7434 25.8379 20.6819 25.7139 21.5609 25.3934C22.4399 25.0729 23.2381 24.5637 23.8992 23.9017C25.2397 22.56 25.9163 20.705 25.7133 18.9119C26.4301 18.3104 27.0063 17.5591 27.4014 16.7109C27.7965 15.8627 28.0008 14.9382 28 14.0025V14.0002ZM9.33333 10.5002C9.34033 8.9742 11.6597 8.9742 11.6667 10.5002C11.6597 12.0262 9.34033 12.0262 9.33333 10.5002ZM12.6373 18.1477C12.5523 18.2752 12.443 18.3846 12.3157 18.4699C12.1883 18.5551 12.0454 18.6144 11.8952 18.6444C11.7449 18.6744 11.5902 18.6745 11.4399 18.6448C11.2896 18.615 11.1466 18.5559 11.0192 18.4709C10.8917 18.3858 10.7822 18.2765 10.697 18.1492C10.6118 18.0219 10.5525 17.879 10.5224 17.7287C10.4618 17.4252 10.5243 17.1101 10.696 16.8527L15.3627 9.8527C15.4477 9.72523 15.557 9.61576 15.6843 9.53053C15.8117 9.4453 15.9546 9.38599 16.1048 9.35598C16.2551 9.32598 16.4098 9.32586 16.5601 9.35563C16.7104 9.38541 16.8534 9.4445 16.9808 9.52954C17.1083 9.61457 17.2178 9.72387 17.303 9.85121C17.3882 9.97855 17.4475 10.1214 17.4775 10.2717C17.5076 10.4219 17.5077 10.5766 17.4779 10.727C17.4481 10.8773 17.389 11.0202 17.304 11.1477L12.6373 18.1477ZM17.5 18.6669C15.974 18.6599 15.974 16.3405 17.5 16.3335C19.026 16.3405 19.026 18.6599 17.5 18.6669Z" fill="#F05C36"/>
</g>
<defs>
<clipPath id="clip0_112_261">
<rect width="28" height="28" fill="white"/>
</clipPath>
</defs>
</svg>
