<svg width="50" height="60" viewBox="0 0 50 60" fill="none" xmlns="http://www.w3.org/2000/svg">
<path d="M29.2458 18.7129C29.1229 18.8358 29.0393 18.9924 29.0053 19.1629C28.9714 19.3333 28.9888 19.51 29.0554 19.6706C29.1219 19.8312 29.2345 19.9685 29.379 20.0651C29.5236 20.1616 29.6935 20.2132 29.8673 20.2132C29.9827 20.2134 30.0971 20.1907 30.2037 20.1465C30.3104 20.1023 30.4072 20.0375 30.4887 19.9557L31.4332 19.0113C31.598 18.8465 31.6905 18.623 31.6905 18.3899C31.6905 18.1568 31.598 17.9333 31.4332 17.7684C31.2683 17.6036 31.0448 17.511 30.8117 17.511C30.5786 17.511 30.3551 17.6036 30.1903 17.7684L29.2458 18.7129ZM28.2406 16.0188H29.5761C29.8092 16.0188 30.0327 15.9262 30.1976 15.7614C30.3624 15.5966 30.455 15.373 30.455 15.1399C30.455 14.9068 30.3624 14.6833 30.1976 14.5184C30.0327 14.3536 29.8092 14.261 29.5761 14.261H28.2406C28.0075 14.261 27.784 14.3536 27.6191 14.5184C27.4543 14.6833 27.3617 14.9068 27.3617 15.1399C27.3617 15.373 27.4543 15.5966 27.6191 15.7614C27.784 15.9262 28.0075 16.0188 28.2406 16.0188ZM8.10429 14.0551C9.90358 15.6152 12.1448 16.3873 14.3827 16.3873C16.854 16.3871 19.3211 15.4455 21.1828 13.5839C24.7301 10.0365 24.9371 4.29188 21.654 0.505548C21.5219 0.35373 21.3601 0.230625 21.1786 0.143849C20.9971 0.0570732 20.7997 0.00847296 20.5986 0.0010557C20.3975 -0.00612609 20.1971 0.0281875 20.0098 0.101858C19.8225 0.175529 19.6524 0.286977 19.5101 0.429259L16.8786 3.06082C16.7138 3.22565 16.6212 3.44918 16.6212 3.68227C16.6212 3.91535 16.7138 4.13889 16.8786 4.30371C16.9602 4.38534 17.0571 4.4501 17.1637 4.49428C17.2703 4.53846 17.3846 4.5612 17.5 4.5612C17.6154 4.5612 17.7297 4.53846 17.8364 4.49428C17.943 4.4501 18.0399 4.38534 18.1215 4.30371L20.5267 1.89856C22.9968 4.98961 22.7634 9.51715 19.9396 12.3409C17.1158 15.1645 12.5882 15.398 9.49718 12.928L15.1917 7.2334C15.3565 7.06858 15.4491 6.84504 15.4491 6.61195C15.4491 6.37887 15.3565 6.15533 15.1917 5.99051C15.0268 5.8257 14.8033 5.73312 14.5702 5.73312C14.3371 5.73312 14.1136 5.8257 13.9488 5.99051L8.02788 11.9114C7.74136 12.1979 7.58538 12.5946 7.59979 12.9997C7.61421 13.4048 7.79808 13.7895 8.10429 14.0551Z" fill="#F05C36"/>
<path d="M16.6331 9.20269C16.4683 9.36751 16.3757 9.59105 16.3757 9.82414C16.3757 10.0572 16.4683 10.2808 16.6331 10.4456L17.4754 11.2879C17.647 11.4595 17.872 11.5454 18.0969 11.5454C18.3217 11.5454 18.5467 11.4596 18.7183 11.2879C18.8831 11.1231 18.9757 10.8996 18.9757 10.6665C18.9757 10.4334 18.8831 10.2099 18.7183 10.045L17.876 9.20269C17.7111 9.03788 17.4876 8.9453 17.2545 8.9453C17.0214 8.9453 16.7979 9.03788 16.6331 9.20269ZM14.3557 10.0473C14.1226 10.0473 13.899 10.1399 13.7342 10.3047C13.5693 10.4695 13.4767 10.6931 13.4767 10.9262V12.1174C13.4767 12.3505 13.5693 12.574 13.7342 12.7389C13.899 12.9037 14.1226 12.9963 14.3557 12.9963C14.5888 12.9963 14.8123 12.9037 14.9771 12.7389C15.142 12.574 15.2346 12.3505 15.2346 12.1174V10.9262C15.2346 10.6931 15.142 10.4695 14.9771 10.3047C14.8123 10.1399 14.5888 10.0473 14.3557 10.0473ZM18.5251 7.8739H19.7164C19.9495 7.8739 20.173 7.7813 20.3379 7.61648C20.5027 7.45165 20.5953 7.2281 20.5953 6.995C20.5953 6.76189 20.5027 6.53834 20.3379 6.37351C20.173 6.20869 19.9495 6.11609 19.7164 6.11609H18.5251C18.292 6.11609 18.0684 6.20869 17.9036 6.37351C17.7388 6.53834 17.6462 6.76189 17.6462 6.995C17.6462 7.2281 17.7388 7.45165 17.9036 7.61648C18.0684 7.7813 18.292 7.8739 18.5251 7.8739Z" fill="#F05C36"/>
<path d="M46.9122 36.326H45.1317C45.098 36.1918 45.0589 36.059 45.0146 35.9279C47.9185 35.2541 49.8587 33.4928 49.8587 31.4114C49.8587 30.0199 48.9864 28.7473 47.4698 27.8544C50.0965 24.996 50.4502 20.976 48.2133 18.7392C47.7799 18.3057 47.2789 17.9707 46.7329 17.7295C46.6955 16.3226 46.3051 14.9462 45.5965 13.7356C45.5388 13.635 45.4616 13.5468 45.3696 13.4761C45.2776 13.4054 45.1724 13.3537 45.0603 13.3239C44.9482 13.294 44.8312 13.2867 44.7162 13.3023C44.6012 13.3179 44.4905 13.3561 44.3903 13.4147C44.2902 13.4733 44.2026 13.5512 44.1327 13.6438C44.0628 13.7364 44.012 13.842 43.9831 13.9544C43.9542 14.0668 43.9478 14.1838 43.9644 14.2986C43.9809 14.4135 44.0201 14.5239 44.0796 14.6236C44.5557 15.4388 44.8508 16.3469 44.9451 17.2862C44.5249 17.2529 44.1024 17.2605 43.6837 17.309C43.3649 14.6635 41.1078 12.6062 38.3778 12.6062C36.8657 12.6062 35.4998 13.2387 34.5267 14.2513L33.64 13.3646C34.8406 12.1248 36.5198 11.3511 38.3778 11.3511C39.4532 11.3511 40.5202 11.6153 41.4633 12.1151C41.6693 12.2242 41.9102 12.2471 42.133 12.1786C42.3558 12.1102 42.5424 11.956 42.6515 11.75C42.7607 11.5441 42.7835 11.3032 42.7151 11.0803C42.6466 10.8575 42.4924 10.671 42.2865 10.5619C41.0907 9.92823 39.7392 9.59331 38.3778 9.59331C36.035 9.59331 33.916 10.5636 32.3972 12.122L28.3426 8.06717C28.2013 7.9257 28.0324 7.81473 27.8465 7.74116C27.6606 7.66758 27.4616 7.63296 27.2617 7.63944C27.0607 7.64621 26.8631 7.69396 26.6811 7.77976C26.4991 7.86556 26.3366 7.98761 26.2034 8.13842C23.7594 10.9134 23.0191 14.6434 23.9355 18.0006C22.9344 18.3095 22.0378 19.088 21.3601 20.2389C20.0466 19.0276 18.4523 18.2559 16.833 18.0546C15.6495 17.9073 14.5444 18.0745 13.5993 18.526C12.2031 17.4777 10.4717 16.8532 8.59529 16.8532C3.98619 16.8532 0.236428 20.603 0.236428 25.2121C0.236428 28.1421 1.75307 30.7228 4.04151 32.2154C3.82026 32.6366 3.66885 33.0907 3.60346 33.5705C3.47186 34.536 3.70026 35.484 4.19959 36.326H2.19264C1.91396 36.3265 1.63827 36.3834 1.38218 36.4934C1.1261 36.6033 0.894926 36.7639 0.702599 36.9656C0.313654 37.3749 0.115256 37.91 0.143967 38.4721C0.383147 43.1521 1.95311 47.6367 4.68404 51.4413C7.3592 55.1682 11.0063 58.0602 15.2312 59.8046C15.5477 59.9348 15.8869 60.0011 16.2291 60H32.8757C33.2239 60 33.5596 59.9342 33.8737 59.8046C38.0985 58.0603 41.7456 55.1683 44.4208 51.4413C47.1517 47.6367 48.7217 43.1519 48.9609 38.4721C48.9896 37.91 48.7912 37.3749 48.4022 36.9656C48.2099 36.7639 47.9787 36.6033 47.7227 36.4934C47.4666 36.3834 47.1909 36.3265 46.9122 36.326ZM38.3779 14.3641C40.2793 14.3641 41.839 15.8509 41.9579 17.7227C41.0856 18.0429 40.2324 18.5297 39.4516 19.1764L35.7691 15.4939C36.4237 14.7992 37.3505 14.3641 38.3779 14.3641ZM38.0295 21.3406C38.0844 21.4851 38.1765 21.6125 38.2964 21.7101C38.4163 21.8076 38.5597 21.8718 38.7124 21.8962C38.865 21.9206 39.0213 21.9043 39.1656 21.849C39.3099 21.7937 39.4371 21.7013 39.5343 21.5811C39.6991 21.377 39.8743 21.1816 40.0594 20.9958C42.2444 18.8109 45.3448 18.3564 46.9706 19.9821C48.5964 21.6081 48.1417 24.7083 45.9568 26.8932C45.7737 27.0756 45.5813 27.2485 45.3804 27.4111C45.2606 27.5084 45.1684 27.6356 45.1133 27.7798C45.0582 27.9241 45.042 28.0803 45.0665 28.2327C45.091 28.3852 45.1552 28.5285 45.2526 28.6483C45.3501 28.7681 45.4774 28.86 45.6217 28.9149C47.1509 29.4968 48.101 30.4534 48.101 31.4113C48.101 32.7978 46.1822 34.0772 43.6379 34.3871C43.4937 34.4047 43.3562 34.4577 43.2376 34.5414C43.1189 34.625 43.0228 34.7368 42.9579 34.8667C42.893 34.9966 42.8613 35.1405 42.8656 35.2856C42.8699 35.4307 42.9101 35.5725 42.9826 35.6983C43.0992 35.8997 43.2006 36.1095 43.2861 36.326H42.9455L37.4076 30.7881L42.3955 25.8002C42.5603 25.6354 42.6528 25.4119 42.6528 25.1788C42.6528 24.9457 42.5603 24.7222 42.3955 24.5573C42.2306 24.3925 42.0071 24.2999 41.774 24.2999C41.5409 24.2999 41.3174 24.3925 41.1526 24.5573L36.1647 29.5452L32.1275 25.508C31.9815 25.3626 31.8074 25.2486 31.6158 25.173C31.4241 25.0974 31.219 25.0619 31.0131 25.0685C30.8067 25.0759 30.604 25.1254 30.4175 25.2141C30.2309 25.3028 30.0645 25.4287 29.9285 25.5841C29.1766 26.4455 28.5703 27.4238 28.1335 28.4805C27.8219 27.6101 27.6629 26.7451 27.6762 25.9499C27.6871 25.3009 27.8324 24.1389 28.6832 23.6477C28.9281 23.5063 29.2171 23.4364 29.5366 23.4364C30.0479 23.4364 30.6371 23.6155 31.2483 23.9666C31.3741 24.0388 31.5157 24.0788 31.6606 24.083C31.8056 24.0872 31.9493 24.0554 32.079 23.9906C32.2087 23.9258 32.3203 23.8299 32.404 23.7115C32.4876 23.593 32.5407 23.4558 32.5584 23.3119C32.8707 20.7742 34.1494 18.8606 35.5327 18.8606C36.491 18.8604 37.4477 19.8108 38.0295 21.3406ZM40.2731 36.1396C40.1709 36.2062 40.0659 36.2684 39.9584 36.326H35.9201C35.5514 36.1287 35.2137 35.8781 34.9181 35.5823C33.4655 34.1298 33.2799 31.883 34.3608 30.2273L40.2731 36.1396ZM22.7931 31.7846C20.1188 31.7846 17.8969 33.7587 17.5078 36.326H16.243C16.6413 33.0646 19.4259 30.5296 22.7931 30.5296C26.1604 30.5296 28.945 33.0646 29.3433 36.326H28.0785C27.6894 33.7585 25.4675 31.7846 22.7931 31.7846ZM26.2893 36.326H19.2971C19.6634 34.7338 21.0914 33.5424 22.7931 33.5424C24.4949 33.5424 25.923 34.7338 26.2893 36.326ZM29.1264 31.6846C29.2913 29.9919 29.9376 28.336 31.0789 26.9453L33.0994 28.9658C31.4751 31.1488 31.5186 34.1887 33.2294 36.326H31.1125C30.9432 34.562 30.2226 32.9574 29.1264 31.6846ZM27.3236 9.53413L34.9449 17.1554C33.1279 17.4828 31.63 19.3165 31.0188 21.936C30.659 21.8134 30.3025 21.7336 29.9519 21.6976C29.6836 21.6701 29.4132 21.6704 29.1451 21.6987C28.4593 19.7229 27.2245 18.3429 25.7552 17.9597C24.8335 15.1424 25.3431 11.9443 27.3236 9.53413ZM13.479 20.7301C14.2367 19.9724 15.3509 19.6417 16.6162 19.7989C17.9631 19.9664 19.3034 20.6571 20.39 21.7438C20.5751 21.9296 20.7505 22.1249 20.9152 22.329C21.0124 22.4492 21.1396 22.5416 21.2839 22.5969C21.4282 22.6522 21.5845 22.6685 21.7371 22.6441C21.8898 22.6198 22.0332 22.5556 22.1531 22.458C22.273 22.3605 22.3651 22.2331 22.42 22.0887C23.0019 20.5588 23.9586 19.6084 24.9168 19.6084C25.9613 19.6084 26.9456 20.6999 27.4996 22.3268C26.5047 23.0566 25.9456 24.3156 25.9185 25.9202C25.898 27.1423 26.1922 28.4756 26.7571 29.7732C25.5399 29.1144 24.1773 28.7701 22.7931 28.7716C22.7834 28.7716 22.7738 28.7723 22.7641 28.7723L19.2969 25.3051C19.132 25.1403 18.9085 25.0477 18.6754 25.0477C18.4423 25.0477 18.2188 25.1403 18.054 25.3051C17.8892 25.4699 17.7966 25.6935 17.7966 25.9265C17.7966 26.1596 17.8892 26.3832 18.054 26.548L20.5777 29.0717C17.8355 29.8265 15.6523 31.9446 14.81 34.6498C13.3258 34.0828 12.3485 33.1485 12.3485 32.1591C12.3485 31.2012 13.2984 30.2446 14.8277 29.6627C14.972 29.6078 15.0992 29.5158 15.1967 29.396C15.2941 29.2763 15.3583 29.1329 15.3828 28.9805C15.4072 28.828 15.3911 28.6718 15.336 28.5276C15.2809 28.3834 15.1888 28.2562 15.069 28.1589C14.868 27.9963 14.6757 27.8235 14.4926 27.641C13.406 26.5543 12.7153 25.214 12.5477 23.8671C12.3904 22.6021 12.7211 21.488 13.479 20.7301ZM6.60358 28.1921C5.6424 27.5478 5.00713 26.4537 5.00713 25.2121C5.00713 23.2336 6.61682 21.6239 8.59529 21.6239C9.43213 21.6239 10.2015 21.9133 10.8122 22.3955C10.7802 22.6188 10.7608 22.8438 10.7541 23.0694C9.85237 23.0899 8.99338 23.3611 8.27373 23.9081C7.01947 24.8614 6.44139 26.4669 6.60358 28.1921ZM8.34908 31.2692C8.48582 31.2446 8.61476 31.1879 8.72533 31.1037C8.8359 31.0196 8.92495 30.9104 8.98518 30.7852C9.04541 30.66 9.0751 30.5223 9.07182 30.3834C9.06854 30.2445 9.03238 30.1084 8.96631 29.9862C7.9899 28.1808 8.146 26.2132 9.33733 25.3077C9.79154 24.9623 10.3444 24.8047 10.9342 24.8135C11.2478 26.1739 11.9549 27.4889 12.9793 28.6025C11.4628 29.4953 10.5906 30.768 10.5906 32.1594C10.5906 33.9466 12.0222 35.4968 14.2652 36.3261H6.43928C5.65119 35.6291 5.21994 34.7267 5.3451 33.808C5.51467 32.5638 6.69381 31.5674 8.34908 31.2692ZM1.99424 25.2121C1.99424 21.5722 4.95545 18.611 8.59529 18.611C9.83794 18.6098 11.0554 18.9617 12.1058 19.6256C11.8194 19.9343 11.574 20.2785 11.3755 20.6497C10.539 20.1365 9.57664 19.8652 8.59529 19.8661C5.64756 19.8661 3.24932 22.2642 3.24932 25.2121C3.24932 27.3646 4.52854 29.2233 6.36639 30.0698C5.91697 30.283 5.50928 30.5423 5.15408 30.8426C3.26022 29.6811 1.99424 27.5918 1.99424 25.2121ZM46.7607 41.8371H38.4766C38.2435 41.8371 38.0199 41.9297 37.8551 42.0945C37.6903 42.2593 37.5977 42.4829 37.5977 42.716C37.5977 42.9491 37.6903 43.1727 37.8551 43.3375C38.0199 43.5023 38.2435 43.5949 38.4766 43.5949H46.3219C45.6051 46.0402 44.4795 48.3466 42.9928 50.4162C40.5092 53.8761 37.1239 56.5608 33.2028 58.1797C33.0989 58.2218 32.9878 58.243 32.8757 58.2421H16.2291C16.1171 58.243 16.0059 58.2218 15.9021 58.1797C11.981 56.5608 8.59565 53.8761 6.11209 50.416C4.62539 48.3464 3.49977 46.0401 2.78291 43.5948H34.2578C34.4909 43.5948 34.7145 43.5022 34.8793 43.3374C35.0441 43.1725 35.1367 42.949 35.1367 42.7159C35.1367 42.4828 35.0441 42.2592 34.8793 42.0944C34.7145 41.9296 34.4909 41.837 34.2578 41.837H2.34416C2.10762 40.6985 1.95898 39.5435 1.89955 38.3822C1.8975 38.3444 1.90331 38.3066 1.91663 38.2711C1.92994 38.2357 1.95046 38.2034 1.9769 38.1763C2.00983 38.1417 2.08154 38.0837 2.19264 38.0837H46.9122C47.0233 38.0837 47.0951 38.1417 47.128 38.1763C47.166 38.2164 47.2103 38.2846 47.2053 38.3822C47.1459 39.5435 46.9972 40.6986 46.7607 41.8371Z" fill="#F05C36"/>
<path d="M33.4194 8.70019C33.5472 8.70019 33.6767 8.68332 33.8051 8.64898L39.5737 7.1034H39.5738C40.2823 6.91343 40.7439 6.22297 40.6477 5.49734C40.462 4.09648 39.8347 2.82699 38.8339 1.82621C37.8331 0.825428 36.5637 0.19824 35.1629 0.0124979C34.4378 -0.0830099 33.7469 0.377889 33.5567 1.08664L32.0111 6.85508C31.8741 7.3666 32.0158 7.89547 32.3902 8.27C32.6708 8.55043 33.0379 8.70019 33.4194 8.70019ZM35.1865 1.79586C36.1 1.96812 36.927 2.40523 37.591 3.0691C38.255 3.73308 38.692 4.55996 38.8642 5.47355L33.8404 6.81968L35.1865 1.79586Z" fill="#F05C36"/>
</svg>
