<svg width="50" height="60" viewBox="0 0 50 60" fill="none" xmlns="http://www.w3.org/2000/svg">
<path d="M1.56247 54.6349V5.36524C1.56247 3.05899 3.44953 1.17205 5.75554 1.17205H46.3407C47.4939 1.17205 48.4373 2.11552 48.4373 3.26864V48.3453M1.56247 54.6349C1.56247 52.3286 3.44942 50.4417 5.75554 50.4417H46.3407C47.4939 50.4417 48.4373 49.4983 48.4373 48.3453M1.56247 54.6349C1.56247 56.9413 3.44953 58.8281 5.75554 58.8281H46.3407C47.4939 58.8281 48.4373 57.8847 48.4373 56.7315V48.3453" stroke="#F05C36" stroke-width="1.8" stroke-miterlimit="22.926" stroke-linecap="round" stroke-linejoin="round"/>
<path d="M43.7496 50.7861V58.4838" stroke="#F05C36" stroke-width="1.8" stroke-miterlimit="22.926" stroke-linecap="round" stroke-linejoin="round"/>
<path d="M6.25006 20.533V1.47709M6.25006 50.1366V31.0799" stroke="#F05C36" stroke-width="1.8" stroke-miterlimit="22.926" stroke-linecap="round" stroke-linejoin="round"/>
<path d="M19.0341 13.8113C20.1113 13.8097 21.167 14.112 22.0801 14.6834C22.9729 12.6638 24.9936 11.2544 27.3438 11.2544C29.694 11.2544 31.7146 12.6638 32.6075 14.6834C33.5205 14.112 34.5763 13.8097 35.6534 13.8113C38.8306 13.8113 41.4062 16.387 41.4062 19.5642C41.4062 22.302 39.4936 24.5928 36.9318 25.1741V39.7202C36.9318 40.0717 36.6441 40.3594 36.2926 40.3594H18.3949C18.0433 40.3594 17.7558 40.0718 17.7558 39.7202V25.1741C15.1938 24.5928 13.2813 22.302 13.2813 19.5642C13.2813 16.387 15.857 13.8113 19.0341 13.8113Z" stroke="#F05C36" stroke-width="1.8" stroke-miterlimit="2.613" stroke-linecap="round" stroke-linejoin="round"/>
<path d="M17.7557 35.6716H36.9318" stroke="#F05C36" stroke-width="1.8" stroke-miterlimit="2.613" stroke-linecap="round" stroke-linejoin="round"/>
<path d="M6.25006 25.8059V25.8068" stroke="#F05C36" stroke-width="1.8" stroke-miterlimit="2.613" stroke-linecap="round" stroke-linejoin="round"/>
</svg>
