<svg width="17" height="16" viewBox="0 0 17 16" fill="none" xmlns="http://www.w3.org/2000/svg">
<path d="M16.3047 14.8619L12.3253 10.8825C13.4098 9.55625 13.9429 7.86392 13.8146 6.15556C13.6862 4.44721 12.9061 2.85354 11.6357 1.7042C10.3653 0.554862 8.70174 -0.0622172 6.9891 -0.019396C5.27647 0.0234252 3.64581 0.72287 2.43442 1.93426C1.22302 3.14566 0.523578 4.77632 0.480757 6.48895C0.437935 8.20158 1.05501 9.86516 2.20435 11.1356C3.35369 12.406 4.94736 13.1861 6.65571 13.3144C8.36407 13.4428 10.0564 12.9096 11.3827 11.8252L15.362 15.8045C15.4877 15.926 15.6561 15.9932 15.8309 15.9916C16.0057 15.9901 16.1729 15.92 16.2966 15.7964C16.4202 15.6728 16.4903 15.5056 16.4918 15.3308C16.4933 15.156 16.4261 14.9876 16.3047 14.8619ZM7.16667 11.9999C6.11184 11.9999 5.08069 11.6871 4.20363 11.101C3.32657 10.515 2.64298 9.68204 2.23932 8.7075C1.83565 7.73296 1.73003 6.6606 1.93582 5.62604C2.14161 4.59147 2.64956 3.64117 3.39544 2.89529C4.14132 2.14941 5.09163 1.64145 6.12619 1.43567C7.16076 1.22988 8.23311 1.3355 9.20765 1.73916C10.1822 2.14283 11.0151 2.82642 11.6012 3.70348C12.1872 4.58054 12.5 5.61169 12.5 6.66652C12.4984 8.08052 11.936 9.43615 10.9362 10.436C9.93631 11.4359 8.58067 11.9983 7.16667 11.9999Z" fill="#AEAEB2"/>
</svg>
